<?xml version="1.0" standalone="no"?>
<!DOCTYPE svg PUBLIC "-//W3C//DTD SVG 1.1//EN" "http://www.w3.org/Graphics/SVG/1.1/DTD/svg11.dtd" >
<svg xmlns="http://www.w3.org/2000/svg">
<metadata>
This is a custom SVG webfont generated by Font Squirrel.
Copyright   : 2005 Mike Abbink Paul van der Laan published by FSI Fonts und Software GmbH
Designer    : Mike Abbink Paul van der Laan
Foundry     : FSI Fonts und Software GmbH
Foundry URL : httpwwwfontfontcom
</metadata>
<defs>
<font id="KievitCyr-MediumRegular" horiz-adv-x="1036" >
<font-face units-per-em="2048" ascent="1556" descent="-492" />
<missing-glyph horiz-adv-x="425" />
<glyph unicode=" "  horiz-adv-x="425" />
<glyph unicode="&#x09;" horiz-adv-x="425" />
<glyph unicode="&#xa0;" horiz-adv-x="425" />
<glyph unicode="!" horiz-adv-x="595" d="M150 127q0 59 41.5 101t105.5 42q63 0 105 -42t42 -101t-42 -102t-105 -43t-105 43t-42 102zM168 1364h258l-43 -926h-172z" />
<glyph unicode="&#x22;" horiz-adv-x="735" d="M80 1364h233l-26 -479h-154zM422 1364h233l-53 -479h-153z" />
<glyph unicode="#" horiz-adv-x="1048" d="M47 471l29 162h188l29 196h-189l27 162h186l39 258h158l-39 -258h182l41 258h158l-41 -258h184l-28 -162h-180l-27 -196h180l-26 -162h-181l-39 -274h-157l39 274h-183l-41 -274h-159l43 274h-193zM420 629h188l31 202h-190z" />
<glyph unicode="$" horiz-adv-x="854" d="M68 74l79 157q43 -31 112 -59.5t151 -28.5q98 0 146 31t48 84q0 35 -24.5 58.5t-64.5 43t-91 38t-102 40.5q-47 23 -89.5 49.5t-74 60.5t-50 78t-18.5 101q0 109 66.5 182.5t187.5 96.5v215h191v-209q84 -10 143 -35t96 -51l-84 -152q-41 29 -102.5 50.5t-132.5 21.5 q-164 0 -164 -109q0 -31 19.5 -53t52 -39.5t73.5 -33t84 -33.5q55 -23 107.5 -48.5t92.5 -60.5t64.5 -81t24.5 -107q0 -123 -70.5 -199t-203.5 -98v-236h-191v229q-96 10 -164.5 37t-111.5 60z" />
<glyph unicode="%" horiz-adv-x="1667" d="M57 711q0 55 20.5 109t60.5 98.5t101.5 71t145.5 26.5q82 0 142.5 -25.5t99.5 -67.5t58.5 -95.5t19.5 -110.5t-19.5 -112.5t-59.5 -99.5t-101.5 -70.5t-143.5 -26.5q-84 0 -144.5 25.5t-100.5 68.5t-59.5 97.5t-19.5 111.5zM242 717q0 -70 33.5 -122t109.5 -52t105.5 49 t29.5 119t-32.5 120t-106.5 50t-106.5 -47t-32.5 -117zM449 0l593 991h185l-594 -991h-184zM965 279q0 55 19.5 110t59 98t101 70t143.5 27t143.5 -26t100.5 -67.5t58.5 -95t19.5 -110.5t-19.5 -112.5t-60.5 -99.5t-102.5 -71t-143.5 -27t-142.5 26t-99 69t-58 97.5 t-19.5 111.5zM1147 285q0 -70 33.5 -122t107.5 -52q76 0 106.5 49t30.5 119t-32.5 120t-106.5 50q-76 0 -107.5 -47t-31.5 -117z" />
<glyph unicode="&#x26;" horiz-adv-x="1325" d="M72 352q0 131 68.5 220.5t213.5 168.5q-78 88 -116.5 163t-38.5 161q0 74 28.5 133t79.5 102t122 66t155 23q82 0 148.5 -23t114.5 -61.5t73.5 -94t25.5 -118.5q0 -115 -74.5 -199t-224.5 -172l299 -322q35 59 59.5 128t38.5 147l193 -33q-18 -111 -60 -208t-104 -179 l232 -254h-273l-104 113q-82 -66 -179.5 -102t-207.5 -36q-115 0 -202 30t-146.5 80t-90 118.5t-30.5 148.5zM299 365q0 -92 66.5 -151.5t189.5 -59.5q143 0 254 92l-342 368q-82 -49 -125 -109t-43 -140zM420 1071q0 -55 29.5 -109.5t95.5 -125.5q104 61 149 119.5 t45 125.5q0 59 -42 102.5t-113 43.5q-76 0 -120 -43t-44 -113z" />
<glyph unicode="'" horiz-adv-x="409" d="M84 1364h242l-41 -479h-158z" />
<glyph unicode="(" horiz-adv-x="675" d="M96 575q0 143 31 274.5t82 246t117.5 211t138.5 168.5h207q-57 -61 -117.5 -148.5t-111 -200t-83 -250t-32.5 -296.5q0 -152 25.5 -284t71.5 -247t108.5 -215t138.5 -186h-207q-74 80 -141.5 179t-117.5 216t-80 251t-30 281z" />
<glyph unicode=")" horiz-adv-x="675" d="M4 -352q61 68 122.5 157t112 202.5t81 248.5t30.5 295q0 152 -27.5 285t-74.5 247.5t-110.5 213t-133.5 178.5h209q76 -80 142.5 -179.5t116.5 -215t80 -248t30 -277.5q0 -147 -31 -280.5t-82 -249t-117.5 -211t-138.5 -166.5h-209z" />
<glyph unicode="*" horiz-adv-x="974" d="M92 1024l55 158l261 -99l-13 281h185l-13 -281l260 99l58 -158l-275 -80l178 -221l-141 -100l-160 237l-159 -237l-142 100l176 221z" />
<glyph unicode="+" horiz-adv-x="1159" d="M84 455v172h403v391h193v-391h395v-172h-395v-408h-193v408h-403z" />
<glyph unicode="," horiz-adv-x="522" d="M109 150q0 59 40.5 97t102.5 38q68 0 118 -51.5t50 -143.5q0 -96 -41 -195.5t-105 -181.5h-143q35 53 59.5 110.5t24.5 104.5q0 35 -16.5 57.5t-37 44t-36.5 48.5t-16 72z" />
<glyph unicode="-" horiz-adv-x="655" d="M106 492v180h443v-180h-443z" />
<glyph unicode="." horiz-adv-x="522" d="M104 133q0 66 46.5 109t111.5 43q66 0 111 -43t45 -109t-45 -109.5t-111 -43.5t-112 43.5t-46 109.5z" />
<glyph unicode="/" horiz-adv-x="876" d="M90 -102l543 1501h209l-543 -1501h-209z" />
<glyph unicode="0" horiz-adv-x="1183" d="M72 494q0 90 30.5 183t95 168t163 123t233.5 48t233.5 -46t162 -120t94 -166t30.5 -184t-31.5 -185.5t-96 -168t-163 -123t-233.5 -48.5t-233.5 47.5t-161 121t-93 166t-30.5 184.5zM305 500q0 -76 18.5 -139.5t54.5 -109.5t90 -71.5t126 -25.5q143 0 215 94t72 246 q0 74 -18.5 137t-55.5 109t-91 72t-126 26q-141 0 -213 -93t-72 -245z" />
<glyph unicode="1" horiz-adv-x="712" d="M53 899l324 92h170v-991h-215v799l-234 -74z" />
<glyph unicode="2" horiz-adv-x="1015" d="M49 0v94q45 35 104.5 80t123 96.5t125 106.5t109.5 110.5t77.5 108.5t29.5 98q0 66 -43 105t-131 39q-66 0 -133 -31t-114 -80l-113 137q68 66 172 110t215 44q82 0 151.5 -17.5t121 -52.5t80 -90t28.5 -129q0 -82 -47 -162t-115.5 -152.5t-147.5 -135t-143 -109.5 q6 0 46 3t77 3h420v-176h-893z" />
<glyph unicode="3" horiz-adv-x="909" d="M59 879q59 57 151.5 97t215.5 40q90 0 158.5 -23.5t116 -64.5t72 -94.5t24.5 -114.5q0 -63 -26 -117.5t-65.5 -95.5t-89 -69.5t-94.5 -41.5v-2q61 -8 117.5 -34.5t101.5 -69.5t72 -102.5t27 -133.5q0 -102 -43 -184t-119 -138.5t-178.5 -86t-220.5 -29.5q-78 0 -124 4 t-69 8l33 176q14 -4 53 -9t88 -5q72 0 135.5 16.5t110.5 49t74.5 80t27.5 108.5q0 66 -26.5 112t-75.5 73.5t-116.5 40t-149.5 12.5v159q55 0 113.5 18.5t106.5 50.5t78.5 78t30.5 101q0 72 -45 110t-133 38q-68 0 -123 -26t-104 -71z" />
<glyph unicode="4" horiz-adv-x="1196" d="M53 0v139l666 852h188v-819h219v-172h-219v-362h-217v362h-637zM291 172h399v516h-4z" />
<glyph unicode="5" horiz-adv-x="899" d="M76 -369l39 176q14 -4 46 -9t85 -5q70 0 133 18.5t110.5 54.5t76 89t28.5 125q0 74 -25.5 125t-69.5 84t-105.5 47t-133.5 14q-33 0 -68.5 -2t-62.5 -6l43 649h629v-170h-432l-21 -299q119 -2 208 -34.5t149.5 -91t90 -136.5t29.5 -168q0 -102 -40 -190t-114.5 -151.5 t-184 -99.5t-248.5 -36q-57 0 -99.5 6t-62.5 10z" />
<glyph unicode="6" horiz-adv-x="1083" d="M78 563q0 182 56 334t164 261.5t262.5 170t348.5 60.5l47 -177q-143 0 -269 -38.5t-210 -118.5q-129 -123 -155 -324q49 41 120.5 66.5t155.5 25.5q92 0 169 -28.5t131 -82t84 -129t30 -169.5t-34 -175t-93.5 -139.5t-144.5 -91.5t-185 -33q-129 0 -219 50.5 t-147.5 133.5t-84 188t-26.5 216zM309 530q-4 -82 10.5 -151.5t46 -120.5t81 -81t116.5 -30q53 0 93 20.5t68 54.5t42 79t14 92q0 125 -57 191.5t-168 66.5q-86 0 -145.5 -25.5t-100.5 -60.5v-35z" />
<glyph unicode="7" horiz-adv-x="950" d="M37 809v182h831v-129l-594 -1272l-184 91l531 1128h-584z" />
<glyph unicode="8" horiz-adv-x="1075" d="M92 336q0 111 69.5 204t203.5 169q-127 74 -180.5 152.5t-53.5 176.5q0 78 32 142.5t87 110.5t129 72t156 26q98 0 174.5 -26t131 -70t82 -105.5t27.5 -134.5q0 -98 -64.5 -176t-189.5 -150q141 -78 213 -168t72 -211q0 -86 -33 -155.5t-92 -117.5t-141 -74t-178 -26 q-111 0 -194 29t-138 78t-84 114.5t-29 139.5zM313 346q0 -86 60.5 -142.5t165.5 -56.5q106 0 161.5 58.5t55.5 142.5q0 68 -53.5 132.5t-188.5 137.5q-104 -66 -152.5 -130t-48.5 -142zM354 1047q0 -59 42 -114.5t149 -117.5q98 59 141 115.5t43 109.5q0 76 -47 127.5 t-139 51.5q-86 0 -137.5 -49t-51.5 -123z" />
<glyph unicode="9" horiz-adv-x="1087" d="M74 584q0 94 35.5 174t98 137t146.5 89t183 32q131 0 221 -51.5t145 -135.5t79 -189t24 -214q0 -182 -56.5 -330.5t-166 -254t-268.5 -163t-363 -57.5l-46 174q141 0 274.5 40t225.5 120q66 59 106 134t52 173q-66 -47 -133.5 -68.5t-145.5 -21.5q-92 0 -167.5 28.5 t-130 83t-84 130.5t-29.5 170zM305 592q0 -115 57.5 -182.5t167.5 -67.5q70 0 133.5 20.5t112.5 61.5l2 37q2 80 -12 149.5t-45 121.5t-79 82t-114 30q-92 0 -157.5 -67.5t-65.5 -184.5z" />
<glyph unicode=":" horiz-adv-x="530" d="M109 135q0 66 45 109t110 43q66 0 111 -43t45 -109t-45 -110.5t-111 -44.5t-110.5 44.5t-44.5 110.5zM109 854q0 66 45 109t110 43q66 0 111 -43t45 -109t-45 -110t-111 -44t-110.5 44t-44.5 110z" />
<glyph unicode=";" horiz-adv-x="530" d="M109 854q0 66 45 109t110 43q66 0 111 -43t45 -109t-45 -110t-111 -44t-110.5 44t-44.5 110zM115 150q0 59 41 97t102 38q68 0 118 -51.5t50 -143.5q0 -98 -43 -198.5t-102 -178.5h-144q35 49 59.5 106.5t24.5 108.5q0 35 -16.5 57.5t-37 44t-36.5 48.5t-16 72z" />
<glyph unicode="&#x3c;" horiz-adv-x="774" d="M55 506l518 467l117 -121l-379 -340l381 -336l-117 -129z" />
<glyph unicode="=" horiz-adv-x="962" d="M76 274v175h809v-175h-809zM76 637v172h809v-172h-809z" />
<glyph unicode="&#x3e;" horiz-adv-x="774" d="M80 844l119 129l520 -459l-518 -467l-117 121l379 340z" />
<glyph unicode="?" horiz-adv-x="837" d="M59 1325q53 29 124 46.5t157 17.5q104 0 182 -27t130.5 -74t78 -111.5t25.5 -138.5q0 -72 -21.5 -126t-54.5 -94t-72 -69.5t-73 -52.5q-63 -41 -95 -74.5t-32 -97.5v-96h-197v119q0 88 32.5 142t112.5 106q74 45 120 92t46 135q0 94 -56 139t-157 45q-49 0 -93 -14 t-79 -31zM164 127q0 59 42 101t105 42t105.5 -42t42.5 -101t-42 -102t-106 -43q-63 0 -105 43t-42 102z" />
<glyph unicode="@" horiz-adv-x="1619" d="M88 494q0 152 57.5 294t159 251.5t241.5 176t306 66.5q172 0 302 -55.5t218 -144.5t133 -201.5t45 -227.5q0 -102 -28.5 -191t-79.5 -154.5t-124 -103.5t-159 -38q-106 0 -159.5 56.5t-57.5 144.5h-4q-41 -86 -112.5 -142.5t-166.5 -56.5q-47 0 -84.5 19.5t-63.5 53 t-39 77.5t-13 92q0 104 28.5 202.5t84 174t136 121.5t187.5 46q78 0 151.5 -16t122.5 -33l-55 -317q-10 -51 -16 -91t-6 -69q0 -47 24.5 -81t65.5 -34q45 0 84 24.5t68.5 68t46 102.5t16.5 131q0 115 -41 207t-113 157.5t-172 100.5t-219 35q-117 0 -223.5 -49.5 t-187.5 -135.5t-130 -202.5t-49 -251.5q0 -123 36 -224.5t105.5 -174t172 -111.5t235.5 -39q90 0 171 18.5t130 40.5l57 -135q-57 -23 -160.5 -46.5t-220.5 -23.5q-164 0 -293.5 53.5t-220 145.5t-138.5 218.5t-48 271.5zM649 442q0 -43 16.5 -78.5t57.5 -35.5q51 0 92 39 t73 100t54.5 136t36.5 149l10 49q-16 6 -49 12t-55 6q-55 0 -98.5 -31.5t-74 -84t-47 -121t-16.5 -140.5z" />
<glyph unicode="A" horiz-adv-x="1343" d="M37 0l520 1364h223l531 -1364h-252l-107 293h-579l-105 -293h-231zM440 481h443l-142 389q-31 86 -48 143.5t-29 92.5h-5q-10 -37 -28.5 -96.5t-46.5 -139.5z" />
<glyph unicode="B" horiz-adv-x="1204" d="M182 0v1364h412q94 0 178 -17.5t147.5 -57.5t99.5 -105.5t36 -159.5q0 -129 -65.5 -204t-178.5 -103v-4q61 -10 116.5 -36t96.5 -68t64.5 -99t23.5 -129q0 -104 -39 -177t-107.5 -118t-164.5 -65.5t-213 -20.5h-406zM410 182h170q150 0 223.5 49.5t73.5 161.5 q0 109 -66 167t-219 58h-182v-436zM410 793h157q135 0 195.5 48t60.5 152q0 98 -63.5 143.5t-188.5 45.5h-161v-389z" />
<glyph unicode="C" horiz-adv-x="1263" d="M98 684q0 139 45 266t132 224.5t216.5 156t294.5 58.5q133 0 226.5 -28t171.5 -79l-109 -170q-59 39 -128.5 61.5t-166.5 22.5q-109 0 -190.5 -41t-137 -109.5t-83 -160.5t-27.5 -193q0 -104 27.5 -198.5t83 -167t138.5 -114.5t195 -42q111 0 188 31.5t132 77.5l100 -162 q-27 -25 -68.5 -50.5t-97 -45t-120 -33t-138.5 -13.5q-168 0 -296 58.5t-214 157t-130 226.5t-44 267z" />
<glyph unicode="D" horiz-adv-x="1421" d="M182 0v1364h371q201 0 347.5 -48t241.5 -136t141 -210t46 -270q0 -147 -46 -275t-143.5 -222t-246 -148.5t-350.5 -54.5h-361zM414 186h147q262 0 393 128t131 378q0 254 -130 370t-404 116h-137v-992z" />
<glyph unicode="E" horiz-adv-x="1060" d="M182 0v1364h748v-193h-518v-364h456v-184h-456v-430h532v-193h-762z" />
<glyph unicode="F" horiz-adv-x="1026" d="M182 0v1364h752v-193h-520v-378h456v-187h-456v-606h-232z" />
<glyph unicode="G" horiz-adv-x="1452" d="M98 684q0 139 48.5 267t139.5 225.5t224 155t305 57.5q145 0 252 -33t188 -92l-108 -172q-72 53 -150.5 78.5t-185.5 25.5q-121 0 -209 -40t-146.5 -108.5t-86 -160.5t-27.5 -195q0 -104 26.5 -199.5t83 -168t143.5 -115.5t206 -43q96 0 168.5 18.5t113.5 48.5v320h-270 v184h496v-626q-76 -55 -200 -95.5t-310 -40.5q-170 0 -300 59.5t-219.5 158t-135.5 226.5t-46 265z" />
<glyph unicode="H" horiz-adv-x="1507" d="M182 0v1364h232v-555h682v555h231v-1364h-231v618h-682v-618h-232z" />
<glyph unicode="I" horiz-adv-x="624" d="M195 0v1364h231v-1364h-231z" />
<glyph unicode="J" horiz-adv-x="632" d="M-66 -377l37 191q10 -4 35 -10.5t53 -6.5q86 0 123 52.5t37 168.5v1346h234v-1378q0 -190 -92.5 -291t-262.5 -101q-59 0 -100 9.5t-64 19.5z" />
<glyph unicode="K" horiz-adv-x="1234" d="M182 0v1364h230v-627l503 627h261l-523 -637l553 -727h-278l-516 684v-684h-230z" />
<glyph unicode="L" horiz-adv-x="1015" d="M184 0v1364h232v-1176h520v-188h-752z" />
<glyph unicode="M" horiz-adv-x="1777" d="M96 0l187 1364h223l303 -881q27 -78 45 -139l31 -102h4l31 102q18 61 47 139l307 881h223l186 -1364h-235l-100 788q-10 74 -15.5 122t-7.5 73h-4q-8 -29 -22.5 -77t-36.5 -115l-273 -791h-225l-277 791q-23 66 -37 114.5t-24 77.5h-4q-4 -61 -19 -199l-96 -784h-211z " />
<glyph unicode="N" horiz-adv-x="1490" d="M178 0v1364h232l559 -803q55 -80 89 -137t48 -80h4q-2 16 -5 69.5t-3 131.5v819h211v-1364h-213l-594 854q-45 61 -75 113.5t-46 76.5h-4q2 -16 5 -62t3 -103v-879h-211z" />
<glyph unicode="O" horiz-adv-x="1570" d="M98 680q0 139 45 267t133.5 226.5t215 157t292.5 58.5t295 -57.5t216 -155t133.5 -224.5t46.5 -266t-45.5 -268t-132.5 -227.5t-214 -157t-292 -58.5q-166 0 -294 58.5t-217.5 156t-135.5 224.5t-46 266zM342 686q0 -104 27.5 -198.5t83 -167t138.5 -114.5t193 -42 q113 0 197 42t139.5 112.5t83 163.5t27.5 198q0 104 -26.5 198.5t-82 166t-138.5 113.5t-193 42q-111 0 -195 -41t-140.5 -111.5t-85 -164t-28.5 -197.5z" />
<glyph unicode="P" horiz-adv-x="1165" d="M180 0v1364h400q106 0 198 -25.5t160 -77t106.5 -129t38.5 -182.5q0 -215 -141 -325.5t-389 -110.5h-141v-514h-232zM412 696h143q156 0 225.5 62.5t69.5 185.5q0 111 -66.5 174.5t-222.5 63.5h-149v-486z" />
<glyph unicode="Q" horiz-adv-x="1570" d="M98 680q0 139 45 267t133.5 226.5t215 157t292.5 58.5t295 -57.5t216 -155t133.5 -224.5t46.5 -266q0 -121 -34 -232.5t-98.5 -203.5t-158.5 -158.5t-217 -95.5q33 -43 65.5 -75t67.5 -51.5t76 -29.5t92 -10q59 0 101 20.5t63 36.5l77 -157q-31 -27 -94 -51.5t-155 -24.5 q-74 0 -142.5 15.5t-136.5 54t-136.5 102t-142.5 160.5q-143 12 -255.5 73.5t-189.5 156.5t-118 215t-41 249zM342 686q0 -104 27.5 -198.5t83 -167t138.5 -114.5t193 -42q113 0 197 42t139.5 112.5t83 163.5t27.5 198q0 104 -26.5 198.5t-82 166t-138.5 113.5t-193 42 q-111 0 -195 -41t-140.5 -111.5t-85 -164t-28.5 -197.5z" />
<glyph unicode="R" horiz-adv-x="1224" d="M182 0v1364h418q229 0 354 -97.5t125 -281.5q0 -84 -27.5 -148.5t-74.5 -108.5t-110.5 -70.5t-133.5 -34.5v-5q25 -16 59.5 -57t92.5 -127l299 -434h-260l-260 387q-49 70 -81 111t-55.5 62.5t-45 26.5t-50.5 5h-18v-592h-232zM414 764h178q133 0 194.5 54t61.5 157 q0 102 -64.5 154.5t-203.5 52.5h-166v-418z" />
<glyph unicode="S" horiz-adv-x="1042" d="M76 113l104 161q12 -10 37 -28.5t61.5 -37t88 -31.5t114.5 -13q115 0 179.5 56t64.5 134q0 53 -25.5 91t-68.5 68t-98.5 55.5t-114.5 56.5q-63 31 -118.5 65.5t-97.5 81.5t-65.5 107.5t-23.5 144.5q0 86 33.5 153.5t91 114.5t134.5 72t163 25q80 0 142 -12.5t108 -30 t79 -37t51 -33.5l-100 -164q-35 25 -104.5 56.5t-167.5 31.5q-92 0 -149.5 -45t-57.5 -127q0 -45 19.5 -76.5t52 -58.5t77.5 -48.5t99 -45.5q68 -31 133 -67t117.5 -85t85 -117.5t32.5 -164.5q0 -88 -33.5 -160t-95 -123t-148.5 -79t-194 -28q-80 0 -146.5 14.5t-116.5 36 t-86 45.5t-56 42z" />
<glyph unicode="T" horiz-adv-x="1062" d="M35 1171v193h993v-193h-379v-1171h-233v1171h-381z" />
<glyph unicode="U" horiz-adv-x="1441" d="M172 520v844h231v-821q0 -193 78 -284t254 -91q166 0 243 96t77 256v844h215v-825q0 -268 -133 -416t-408 -148q-289 0 -423 144.5t-134 400.5z" />
<glyph unicode="V" horiz-adv-x="1316" d="M31 1364h250l315 -872q29 -80 47.5 -144.5t28.5 -87.5h4q8 25 26.5 89.5t47.5 142.5l305 872h231l-508 -1364h-221z" />
<glyph unicode="W" horiz-adv-x="1835" d="M39 1364h248l198 -801q8 -41 17.5 -83t15.5 -76.5t11.5 -59.5t5.5 -27h4q0 2 6 28t13 61.5t17.5 78.5t20.5 82l221 797h230l217 -793q10 -41 20 -84t17.5 -78.5t12.5 -60t5 -26.5h4q0 2 4 25.5t10 58t15.5 77.5t19.5 84l203 797h223l-375 -1364h-211l-227 829 q-12 41 -22.5 86.5t-17.5 82t-12 62t-5 27.5h-4q0 -2 -6.5 -26.5t-15.5 -62t-19.5 -82t-22.5 -87.5l-239 -829h-213z" />
<glyph unicode="X" horiz-adv-x="1214" d="M45 0l432 702l-411 662h264l288 -471l273 471h237l-397 -659l438 -705h-262l-319 518l-307 -518h-236z" />
<glyph unicode="Y" horiz-adv-x="1185" d="M29 1364h258l321 -633h2l322 633h225l-442 -848v-516h-232v516z" />
<glyph unicode="Z" horiz-adv-x="1159" d="M94 0v154l678 1022h-647v188h926v-147l-686 -1029h706v-188h-977z" />
<glyph unicode="[" horiz-adv-x="667" d="M147 -330v1805h467v-164h-258v-1477h258v-164h-467z" />
<glyph unicode="\" horiz-adv-x="876" d="M8 1475h209l651 -1805h-209z" />
<glyph unicode="]" horiz-adv-x="667" d="M53 -166h258v1477h-258v164h467v-1805h-467v164z" />
<glyph unicode="^" horiz-adv-x="1196" d="M106 590l416 774h150l415 -774h-198l-291 549l-291 -549h-201z" />
<glyph unicode="_" horiz-adv-x="851" d="M-2 -182h856v-172h-856v172z" />
<glyph unicode="`" horiz-adv-x="1024" d="M281 1376h292l179 -268h-191z" />
<glyph unicode="a" horiz-adv-x="1001" d="M78 250q0 96 47 162.5t123 107.5t170 58.5t188 17.5h39v72q0 90 -41 130t-137 40q-76 0 -138.5 -27t-115.5 -74l-102 140q66 59 160 99t218 40q186 0 279.5 -82t93.5 -268v-404q0 -88 7.5 -154.5t17.5 -107.5h-215q-4 20 -9.5 55t-7.5 58q-43 -55 -116.5 -96.5 t-169.5 -41.5q-61 0 -114.5 18.5t-92.5 54.5t-61.5 86t-22.5 116zM295 262q0 -33 12 -55.5t30.5 -36.5t42 -20.5t46.5 -6.5q72 0 126 32t93 79v199h-39q-137 0 -224 -43.5t-87 -147.5z" />
<glyph unicode="b" horiz-adv-x="1101" d="M143 53v1422h217v-562q41 41 105.5 72t140.5 31q195 0 309.5 -134t114.5 -380q0 -121 -39 -218.5t-108.5 -166t-163.5 -105.5t-205 -37q-129 0 -224.5 24.5t-146.5 53.5zM360 176q25 -10 64 -17t92 -7q70 0 122 25.5t88 71.5t54.5 110.5t18.5 140.5q0 74 -14.5 135 t-44 105t-77 70t-112.5 26q-59 0 -110.5 -27t-80.5 -57v-576z" />
<glyph unicode="c" horiz-adv-x="921" d="M72 496q0 125 37.5 222t104.5 163.5t156 100.5t193 34q121 0 194.5 -32t108.5 -56l-80 -154q-37 25 -88 47.5t-131 22.5q-135 0 -200.5 -96.5t-65.5 -245.5q0 -74 16.5 -138.5t50 -111.5t84 -74.5t119.5 -27.5q90 0 147.5 27.5t80.5 41.5l71 -149q-16 -12 -41.5 -28.5 t-64.5 -31t-90 -25t-119 -10.5q-115 0 -205 40t-151.5 111t-94 165t-32.5 205z" />
<glyph unicode="d" horiz-adv-x="1110" d="M72 494q0 119 33.5 215t92 164.5t139.5 105.5t175 37q78 0 138.5 -21.5t101.5 -56.5v537h217v-1227q0 -74 9 -138.5t19 -109.5h-215q-6 16 -12 50t-8 61q-51 -61 -121 -98.5t-162 -37.5t-166.5 34t-128 100.5t-83 163t-29.5 221.5zM303 496q0 -154 56.5 -247t179.5 -93 q63 0 119.5 32.5t93.5 83.5v492q-39 35 -87.5 55.5t-113.5 20.5q-121 0 -184.5 -94t-63.5 -250z" />
<glyph unicode="e" d="M72 502q0 113 34.5 208t98 162.5t148.5 105.5t188 38q201 0 307 -124t106 -343q0 -20 -1 -42t-3 -44h-647q4 -66 21.5 -124t51.5 -101t85 -68t123 -25q102 0 165.5 30t98.5 48l76 -149q-23 -12 -53.5 -29.5t-73.5 -33t-100.5 -26t-129.5 -10.5q-121 0 -214 39t-155.5 110 t-94 167t-31.5 211zM305 618h434q-2 47 -13 89.5t-34.5 74t-61.5 50t-93 18.5q-100 0 -157 -64t-75 -168z" />
<glyph unicode="f" horiz-adv-x="704" d="M37 825v166h158v121q0 176 97 281.5t279 105.5q92 0 141.5 -14.5t65.5 -22.5l-53 -172q-10 4 -45 15.5t-88 11.5q-92 0 -136 -56.5t-44 -164.5v-105h241v-166h-241v-825h-217v825h-158z" />
<glyph unicode="g" horiz-adv-x="1071" d="M76 -217q0 84 47 145.5t121 102.5q-41 23 -64.5 58.5t-23.5 90.5q0 59 31.5 102.5t74.5 69.5q-86 47 -131 125t-45 176q0 80 28.5 146.5t84 115t133.5 75t176 26.5q92 0 166 -25h344v-151h-144q55 -84 56 -187q0 -78 -28 -144.5t-82 -114.5t-131 -74.5t-175 -26.5 q-55 0 -113 10q-51 -27 -51 -67q0 -41 44 -55.5t130 -18.5q80 -4 166 -10.5t158 -35t119 -88t47 -171.5q0 -78 -40 -141.5t-109.5 -108.5t-165 -69.5t-205.5 -24.5q-94 0 -171 15t-132.5 49t-85 84t-29.5 122zM285 -182q0 -66 52 -109t169 -43q135 0 212 48t77 124 q0 47 -20.5 74t-54.5 39t-78 15t-93 7q-41 4 -82 6.5t-78 8.5q-104 -68 -104 -170zM301 653q0 -94 54.5 -150.5t152.5 -56.5t152.5 56.5t54.5 150.5q0 96 -54.5 152.5t-152.5 56.5t-152.5 -56.5t-54.5 -152.5z" />
<glyph unicode="h" horiz-adv-x="1112" d="M143 0v1475h217v-613q18 20 46 47t67 50.5t89 40t114 16.5q80 0 136 -24.5t91 -67.5t51.5 -100.5t16.5 -123.5v-700h-217v655q0 84 -33 129t-119 45q-47 0 -88 -19t-72.5 -45t-52 -50.5t-29.5 -34.5v-680h-217z" />
<glyph unicode="i" horiz-adv-x="546" d="M131 1284q0 57 41 98t100 41q61 0 102.5 -41t41.5 -98t-41 -98t-103 -41q-59 0 -100 41t-41 98zM164 0v991h219v-991h-219z" />
<glyph unicode="j" horiz-adv-x="530" d="M-86 -455l37 172q10 -4 26.5 -7t47.5 -3q78 0 105.5 54.5t27.5 168.5v1061h219v-1089q0 -86 -17.5 -156t-55.5 -119t-98.5 -75.5t-144.5 -26.5q-66 0 -100.5 8t-46.5 12zM123 1284q0 57 41 98t100 41q61 0 101.5 -41t40.5 -98t-40 -98t-102 -41q-59 0 -100 41t-41 98z " />
<glyph unicode="k" horiz-adv-x="1013" d="M143 0v1475h217v-910l369 426h244l-387 -440l401 -551h-256l-371 522v-522h-217z" />
<glyph unicode="l" horiz-adv-x="532" d="M158 0v1475h217v-1475h-217z" />
<glyph unicode="m" horiz-adv-x="1656" d="M147 0v991h215v-131q18 20 44 48t63 51.5t85 40t110 16.5q106 0 166.5 -45t87.5 -117q59 68 133.5 115t183.5 47q76 0 130 -24.5t87 -66.5t48.5 -99.5t15.5 -125.5v-700h-218v655q0 82 -28.5 128t-108.5 46q-37 0 -70.5 -13t-61.5 -32.5t-50.5 -42t-38.5 -43.5v-698h-217 v655q0 84 -32 129t-103 45q-45 0 -82 -19t-65.5 -44t-47 -49.5t-26.5 -34.5v-682h-220z" />
<glyph unicode="n" horiz-adv-x="1116" d="M147 0v991h215v-133q59 72 139.5 115t178.5 43q80 0 136 -24.5t91 -67.5t51.5 -100.5t16.5 -123.5v-700h-217v655q0 84 -33 129t-119 45q-74 0 -136 -47t-103 -102v-680h-220z" />
<glyph unicode="o" horiz-adv-x="1105" d="M72 494q0 92 26.5 184t83 168t146.5 123t219 47q127 0 219 -46t152.5 -120t89 -166t28.5 -184q0 -90 -27.5 -183.5t-87 -169t-151.5 -124t-219 -48.5q-129 0 -219 47.5t-148.5 121t-85 166t-26.5 184.5zM301 500q0 -74 14.5 -138.5t45 -111.5t78.5 -75t114 -28 q68 0 115 27t77.5 73t45 109.5t14.5 137.5t-16.5 138t-48 111.5t-81 75t-116.5 27.5q-66 0 -112 -26.5t-74.5 -73t-42 -109.5t-13.5 -137z" />
<glyph unicode="p" horiz-adv-x="1118" d="M147 -449v1440h215v-104q41 47 109 88t172 41q184 0 294 -135.5t110 -382.5q0 -117 -33 -213.5t-91.5 -165t-140.5 -106.5t-178 -38q-98 0 -154.5 28t-82.5 50v-502h-220zM367 227q29 -27 75.5 -52t124.5 -25q121 0 184.5 95t63.5 251q0 154 -56.5 247t-174.5 93 q-43 0 -80 -14.5t-64.5 -33t-46 -39t-26.5 -32.5v-490z" />
<glyph unicode="q" horiz-adv-x="1105" d="M74 489q0 121 40 218.5t109.5 166t163.5 105.5t203 37q80 0 143.5 -9.5t109.5 -21.5t75.5 -24.5t42.5 -18.5v-1388h-220v524q-35 -35 -97 -69t-146 -34q-195 0 -309.5 135t-114.5 379zM305 492q0 -74 13.5 -136.5t43 -106.5t76.5 -69.5t115 -25.5q37 0 68.5 11t56 25.5 t41 28.5t22.5 21v573q-14 4 -50 15.5t-101 11.5q-70 0 -123 -27t-89 -73t-54.5 -109t-18.5 -139z" />
<glyph unicode="r" horiz-adv-x="757" d="M147 0v991h220v-143q14 27 37.5 56.5t56.5 54t72.5 41t89.5 16.5q51 0 78.5 -8.5t41.5 -16.5l-53 -194q-10 6 -32.5 13t-63.5 7q-49 0 -89 -22.5t-67.5 -51t-46 -57.5t-24.5 -43v-643h-220z" />
<glyph unicode="s" horiz-adv-x="849" d="M68 70l79 155q29 -20 93.5 -51t150.5 -31t133 30t47 85q0 29 -16 50.5t-47 40t-75 36.5t-97 43q-55 25 -99 52.5t-77 62.5t-50.5 79t-17.5 103q0 63 24.5 117.5t68.5 92.5t107.5 59.5t143.5 21.5q63 0 113.5 -10.5t88.5 -23.5t64.5 -28.5t40.5 -23.5l-86 -152 q-29 18 -83 43t-132 25q-76 0 -112.5 -29t-36.5 -80q0 -31 15.5 -51t42 -37.5t62.5 -32.5l76 -30q59 -25 112.5 -52.5t92.5 -62.5t61.5 -81t22.5 -109q0 -147 -101.5 -227.5t-275.5 -80.5q-123 0 -204.5 32t-128.5 65z" />
<glyph unicode="t" horiz-adv-x="755" d="M45 825v166h160v285h217v-285h240v-166h-240v-526q0 -74 23.5 -108.5t82.5 -34.5q45 0 81 15t50 26l62 -164q-29 -16 -86 -37t-146 -21q-152 0 -218 78t-66 211v561h-160z" />
<glyph unicode="u" horiz-adv-x="1114" d="M139 291v700h217v-655q0 -84 33 -129t119 -45q47 0 87 19.5t71.5 45t52 50t29.5 34.5v680h217v-739q0 -82 7 -147.5t17 -104.5h-217q-4 18 -10 61t-8 78q-18 -25 -47 -53.5t-69 -53t-90 -41t-114 -16.5q-80 0 -136 25t-92 68t-51.5 100t-15.5 123z" />
<glyph unicode="v" horiz-adv-x="997" d="M27 991h235l240 -717h4l239 717h224l-367 -991h-203z" />
<glyph unicode="w" horiz-adv-x="1480" d="M29 991h233l178 -684h4l197 684h205l198 -686h5l180 686h217l-289 -991h-196l-222 711h-4l-223 -711h-197z" />
<glyph unicode="x" horiz-adv-x="1001" d="M39 0l340 516l-324 475h246l205 -307l188 307h226l-310 -465l355 -526h-246l-238 358l-219 -358h-223z" />
<glyph unicode="y" horiz-adv-x="1013" d="M12 -463l31 174q10 -2 28.5 -5t59.5 -3q51 0 89 13.5t64.5 38t46 61.5t36.5 84l43 114l-373 977h235l250 -715h6l234 715h225l-414 -1108q-31 -80 -65.5 -146.5t-83.5 -113.5t-117.5 -73.5t-165.5 -26.5q-53 0 -83 5t-46 9z" />
<glyph unicode="z" horiz-adv-x="905" d="M82 0v125l465 698h-441v168h705v-131l-463 -692h469v-168h-735z" />
<glyph unicode="{" horiz-adv-x="786" d="M55 502v164q229 6 230 215v356q0 61 20.5 106.5t53 75t74.5 43t87 13.5h215v-164h-131q-68 0 -89 -40t-21 -110v-325q0 -113 -54.5 -168.5t-138.5 -77.5v-4q84 -27 138.5 -86.5t54.5 -173.5v-346q0 -74 20.5 -110t87.5 -36h133v-164h-215q-43 0 -85 14.5t-75.5 44 t-54 74.5t-20.5 107v377q0 98 -57.5 154.5t-172.5 60.5z" />
<glyph unicode="|" horiz-adv-x="583" d="M199 -512v2048h186v-2048h-186z" />
<glyph unicode="}" horiz-adv-x="786" d="M53 -166h129q68 0 89.5 40t21.5 110v348q0 113 54 168t140 78v4q-86 27 -140 85t-54 175v323q0 74 -19.5 110t-89.5 36h-131v164h215q43 0 85 -14.5t75 -44.5t53.5 -75t20.5 -106v-354q0 -98 57 -154.5t174 -60.5v-164q-113 -4 -172 -57.5t-59 -157.5v-379 q0 -61 -20.5 -106.5t-53.5 -75t-75 -43t-85 -13.5h-215v164z" />
<glyph unicode="~" horiz-adv-x="1200" d="M92 526q23 20 53.5 45t67.5 44.5t82 33t94 13.5q70 0 120 -20.5t95 -44.5t94.5 -44.5t118.5 -20.5q57 0 106.5 26t84.5 58l100 -129q-51 -51 -129 -94t-174 -43q-78 0 -132.5 20.5t-100.5 44t-91 44t-104 20.5q-66 0 -110 -26.5t-72 -55.5z" />
<glyph unicode="&#xa9;" horiz-adv-x="1738" d="M106 735q0 158 60.5 297t164 242.5t242 164t295.5 60.5q158 0 297.5 -60.5t242.5 -164t163.5 -242.5t60.5 -297t-60.5 -297t-163.5 -242.5t-242.5 -164t-297.5 -60.5t-296 60.5t-241.5 164t-164 242.5t-60.5 297zM250 735q0 -139 47 -254.5t130 -198.5t195.5 -129.5 t245.5 -46.5t247 46.5t197 129.5t129 198.5t46 254.5t-46 255t-129 199t-197 129t-247 46t-245.5 -46t-195.5 -129t-130 -199t-47 -255zM424 735q0 98 36 183.5t98.5 147.5t146 98t180.5 36q115 0 183.5 -33.5t113.5 -72.5l-95 -129q-29 25 -75.5 50t-124.5 25 q-66 0 -117 -25.5t-86 -67.5t-52.5 -96t-17.5 -112q0 -66 21.5 -123t59.5 -99t89.5 -65.5t110.5 -23.5q84 0 137 32t84 58l84 -129q-43 -39 -121 -79t-196 -40q-98 0 -182.5 36t-145.5 99.5t-96 147.5t-35 182z" />
<glyph unicode="&#xab;" horiz-adv-x="1046" d="M78 502l258 393h223l-256 -393l256 -391h-223zM492 502l258 393h225l-256 -393l256 -391h-225z" />
<glyph unicode="&#xad;" horiz-adv-x="655" d="M106 492v180h443v-180h-443z" />
<glyph unicode="&#xae;" horiz-adv-x="1738" d="M106 735q0 158 60.5 297t164 242.5t242 164t295.5 60.5q158 0 297.5 -60.5t242.5 -164t163.5 -242.5t60.5 -297t-60.5 -297t-163.5 -242.5t-242.5 -164t-297.5 -60.5t-296 60.5t-241.5 164t-164 242.5t-60.5 297zM250 735q0 -139 47 -254.5t130 -198.5t195.5 -129.5 t245.5 -46.5t247 46.5t197 129.5t129 198.5t46 254.5t-46 255t-129 199t-197 129t-247 46t-245.5 -46t-195.5 -129t-130 -199t-47 -255zM584 301v887h301q147 0 222 -73t75 -183q0 -100 -60.5 -157.5t-158.5 -74.5q25 -18 50 -47.5t54 -77.5l182 -274h-188l-191 295 q-31 49 -54 66.5t-68 17.5v-379h-164zM748 799h86q35 0 66.5 5t56 18.5t39 39t14.5 66.5q0 59 -33 94t-117 35h-112v-258z" />
<glyph unicode="&#xb0;" horiz-adv-x="708" d="M72 1110q0 57 22.5 108.5t61.5 89.5t90 59.5t108 21.5t108.5 -21.5t90.5 -59.5t61.5 -89.5t22.5 -108.5t-22.5 -108.5t-60.5 -89.5t-90 -59.5t-110 -21.5q-57 0 -108 21.5t-90 59.5t-61.5 89.5t-22.5 108.5zM215 1110q0 -61 39 -103t100 -42t100.5 42t39.5 103t-39 104 t-101 43q-61 0 -100 -43t-39 -104z" />
<glyph unicode="&#xbb;" horiz-adv-x="1046" d="M72 111l256 391l-256 393h223l258 -393l-258 -391h-223zM485 111l256 391l-256 393h224l260 -393l-260 -391h-224z" />
<glyph unicode="&#x2c6;" horiz-adv-x="1196" d="M106 590l416 774h150l415 -774h-198l-291 549l-291 -549h-201z" />
<glyph unicode="&#x2da;" horiz-adv-x="425" d="M-282 401q0 57 22.5 108.5t61.5 89.5t90 59.5t108 21.5t108.5 -21.5t90.5 -59.5t61.5 -89.5t22.5 -108.5t-22.5 -108.5t-60.5 -89.5t-90 -59.5t-110 -21.5q-57 0 -108 21.5t-90 59.5t-61.5 89.5t-22.5 108.5zM-139 401q0 -61 39 -103t100 -42t100.5 42t39.5 103t-39 104 t-101 43q-61 0 -100 -43t-39 -104z" />
<glyph unicode="&#x2dc;" horiz-adv-x="425" d="M-508 299q23 20 53.5 45t67.5 44.5t82 33t94 13.5q70 0 120 -20.5t95 -44.5t94.5 -44.5t118.5 -20.5q57 0 106.5 26t84.5 58l100 -129q-51 -51 -129 -94t-174 -43q-78 0 -132.5 20.5t-100.5 44t-91 44t-104 20.5q-66 0 -110 -26.5t-72 -55.5z" />
<glyph unicode="&#x400;" horiz-adv-x="1060" d="M181 1779h292l179 -268h-191zM182 0v1364h748v-193h-518v-364h456v-184h-456v-430h532v-193h-762z" />
<glyph unicode="&#x401;" horiz-adv-x="1060" d="M182 0v1364h748v-193h-518v-364h456v-184h-456v-430h532v-193h-762zM221 1599q0 53 38 91.5t95 38.5t95 -38t38 -92q0 -53 -37.5 -92t-95.5 -39q-57 0 -95 39t-38 92zM631 1599q0 53 38 91.5t95 38.5t95 -38t38 -92q0 -53 -38 -92t-95 -39t-95 39t-38 92z" />
<glyph unicode="&#x402;" horiz-adv-x="1464" d="M35 1171v193h997v-193h-442v-423q23 29 59.5 62.5t86.5 62t110.5 48t132.5 19.5q102 0 177 -42t123 -116.5t71.5 -177t23.5 -221.5q0 -172 -43 -316.5t-117.5 -250t-176 -164t-216.5 -58.5q-41 0 -82 8.5t-61 18.5l45 186q35 -14 98 -14q68 0 126.5 44t100.5 122 t66.5 181.5t24.5 224.5q0 176 -54.5 281.5t-179.5 105.5q-55 0 -104 -18.5t-90 -46.5t-72 -58.5t-49 -55.5v-573h-230v1171h-325z" />
<glyph unicode="&#x403;" horiz-adv-x="980" d="M182 0v1364h764v-188h-532v-1176h-232zM412 1470l178 269h295l-283 -269h-190z" />
<glyph unicode="&#x404;" horiz-adv-x="1263" d="M98 684q0 141 45 269t132 224.5t216.5 154t294.5 57.5q133 0 226.5 -28t171.5 -79l-109 -170q-59 39 -128.5 61.5t-166.5 22.5q-98 0 -175 -34t-132 -92t-87 -135t-38 -163h615v-184h-613q8 -84 41 -160t88.5 -133t132 -91t174.5 -34q111 0 188 31.5t132 77.5l100 -162 q-27 -25 -68.5 -50.5t-97 -45t-120 -33t-138.5 -13.5q-168 0 -296 57.5t-214 156t-130 226.5t-44 269z" />
<glyph unicode="&#x405;" horiz-adv-x="1042" d="M76 113l104 161q12 -10 37 -28.5t61.5 -37t88 -31.5t114.5 -13q115 0 179.5 56t64.5 134q0 53 -25.5 91t-68.5 68t-98.5 55.5t-114.5 56.5q-63 31 -118.5 65.5t-97.5 81.5t-65.5 107.5t-23.5 144.5q0 86 33.5 153.5t91 114.5t134.5 72t163 25q80 0 142 -12.5t108 -30 t79 -37t51 -33.5l-100 -164q-35 25 -104.5 56.5t-167.5 31.5q-92 0 -149.5 -45t-57.5 -127q0 -45 19.5 -76.5t52 -58.5t77.5 -48.5t99 -45.5q68 -31 133 -67t117.5 -85t85 -117.5t32.5 -164.5q0 -88 -33.5 -160t-95 -123t-148.5 -79t-194 -28q-80 0 -146.5 14.5t-116.5 36 t-86 45.5t-56 42z" />
<glyph unicode="&#x406;" horiz-adv-x="612" d="M182 0v1364h232v-1364h-232z" />
<glyph unicode="&#x407;" horiz-adv-x="624" d="M-27 1599q0 53 38 91.5t95 38.5t95.5 -38t38.5 -92q0 -53 -38 -92t-96 -39q-57 0 -95 39t-38 92zM195 0v1364h231v-1364h-231zM383 1599q0 53 38 91.5t95 38.5t95 -38t38 -92q0 -53 -38 -92t-95 -39t-95 39t-38 92z" />
<glyph unicode="&#x408;" horiz-adv-x="632" d="M-66 -377l37 191q10 -4 35 -10.5t53 -6.5q86 0 123 52.5t37 168.5v1346h234v-1378q0 -190 -92.5 -291t-262.5 -101q-59 0 -100 9.5t-64 19.5z" />
<glyph unicode="&#x409;" horiz-adv-x="1988" d="M51 162q119 10 171 139t73 371l57 692h856v-514h201q106 0 198.5 -25.5t160 -77t105.5 -129t38 -182.5q0 -215 -140.5 -325.5t-388.5 -110.5h-403v1171h-418l-45 -550q-25 -328 -129 -484.5t-309 -156.5zM1208 182h174q158 0 226.5 62.5t68.5 185.5q0 111 -66.5 174.5 t-221.5 63.5h-181v-486z" />
<glyph unicode="&#x40a;" horiz-adv-x="1996" d="M182 0v1364h232v-533h573v533h232v-533h200q106 0 198.5 -24.5t160 -74.5t105.5 -126t38 -178q0 -211 -141.5 -319.5t-388.5 -108.5h-404v641h-573v-641h-232zM1219 182h174q156 0 225.5 61.5t69.5 178.5q0 104 -67 165.5t-222 61.5h-180v-467z" />
<glyph unicode="&#x40b;" horiz-adv-x="1495" d="M35 1171v193h997v-193h-442v-423q23 29 60.5 62.5t89 62t113.5 48t134 19.5q180 0 282.5 -105.5t102.5 -287.5v-547h-229v502q0 129 -65.5 189.5t-164.5 60.5q-55 0 -105 -18.5t-93 -46.5t-75 -58.5t-50 -55.5v-573h-230v1171h-325z" />
<glyph unicode="&#x40c;" horiz-adv-x="1247" d="M182 0v1364h230v-582h106l424 582h252l-487 -641q41 -35 86 -94.5t104 -151.5q45 -72 80 -125t64.5 -89t58 -54.5t65.5 -18.5h21l-2 -190h-92q-55 0 -97.5 16.5t-82.5 53t-83 96t-98 145.5q-43 68 -75.5 121t-61.5 90t-56.5 56.5t-60.5 19.5h-65v-598h-230zM528 1470 l179 269h294l-282 -269h-191z" />
<glyph unicode="&#x40d;" horiz-adv-x="1497" d="M373 1779h292l179 -268h-191zM182 0v1364h213v-829q0 -78 -3 -131.5t-5 -69.5h4q14 23 48 79t89 136l555 815h232v-1364h-215v889q0 59 3 105t5 63h-4q-14 -27 -45 -78t-74 -115l-592 -864h-211z" />
<glyph unicode="&#x40e;" horiz-adv-x="1167" d="M82 1364h221l303 -688l301 688h223l-466 -1053q-39 -86 -80 -145.5t-90.5 -98t-110.5 -56t-137 -17.5q-37 0 -65.5 5t-45.5 11l31 174q12 -4 30.5 -6t41.5 -2q82 0 133 49t94 148l29 65zM283 1757h184q4 -70 40 -110.5t99 -40.5t98 41t41 110h183q-6 -80 -36 -136 t-73 -93t-98 -54.5t-115 -17.5q-59 0 -114.5 17.5t-99.5 54.5t-72.5 93t-36.5 136z" />
<glyph unicode="&#x40f;" horiz-adv-x="1439" d="M182 0v1364h230v-1171h616v1171h232v-1364h-449l-14 -297h-152l-14 297h-449z" />
<glyph unicode="&#x410;" horiz-adv-x="1343" d="M37 0l520 1364h223l531 -1364h-252l-107 293h-579l-105 -293h-231zM440 481h443l-142 389q-31 86 -48 143.5t-29 92.5h-5q-10 -37 -28.5 -96.5t-46.5 -139.5z" />
<glyph unicode="&#x411;" horiz-adv-x="1214" d="M182 0v1364h807v-193h-575v-340h198q106 0 198.5 -24.5t160 -74.5t106.5 -126t39 -178q0 -211 -142.5 -319.5t-387.5 -108.5h-404zM414 182h172q158 0 227.5 61.5t69.5 178.5q0 104 -67.5 165.5t-221.5 61.5h-180v-467z" />
<glyph unicode="&#x412;" horiz-adv-x="1204" d="M182 0v1364h412q94 0 178 -17.5t147.5 -57.5t99.5 -105.5t36 -159.5q0 -129 -65.5 -204t-178.5 -103v-4q61 -10 116.5 -36t96.5 -68t64.5 -99t23.5 -129q0 -104 -39 -177t-107.5 -118t-164.5 -65.5t-213 -20.5h-406zM410 182h170q150 0 223.5 49.5t73.5 161.5 q0 109 -66 167t-219 58h-182v-436zM410 793h157q135 0 195.5 48t60.5 152q0 98 -63.5 143.5t-188.5 45.5h-161v-389z" />
<glyph unicode="&#x413;" horiz-adv-x="980" d="M182 0v1364h764v-188h-532v-1176h-232z" />
<glyph unicode="&#x414;" horiz-adv-x="1458" d="M49 193h109q35 33 59.5 73.5t43 97t31.5 131t25 177.5l82 692h826v-1171h141l-43 -490h-149l-21 297h-895l-25 -297h-151zM397 193h596v978h-391l-61 -538q-20 -178 -56.5 -282.5t-87.5 -157.5z" />
<glyph unicode="&#x415;" horiz-adv-x="1060" d="M182 0v1364h748v-193h-518v-364h456v-184h-456v-430h532v-193h-762z" />
<glyph unicode="&#x416;" horiz-adv-x="1902" d="M53 1364h252l424 -582h107v582h231v-582h107l423 582h252l-489 -641q41 -35 87 -94.5t105 -151.5q45 -72 79 -125t64.5 -89t59.5 -54.5t66 -18.5h20l-4 -190h-90q-55 0 -97 16.5t-82 53t-83 96t-99 145.5q-43 68 -75.5 121t-61 90t-56.5 56.5t-60 19.5h-66v-598h-231v598 h-72q-31 -2 -57.5 -22.5t-54 -57.5t-59.5 -89t-75 -118q-55 -86 -99 -145.5t-84 -96t-82 -53t-95 -16.5h-97l5 190h16q37 0 66.5 18.5t59.5 54.5t63.5 89.5t78.5 124.5q59 92 104.5 151.5t86.5 94.5z" />
<glyph unicode="&#x417;" horiz-adv-x="1083" d="M57 98l107 166q49 -41 123.5 -69.5t185.5 -28.5q135 0 209 53t74 166q0 106 -78 169.5t-223 63.5h-144v175h117q129 0 201.5 53t72.5 158q0 88 -59 140t-176 52q-98 0 -169 -25.5t-124 -66.5l-88 162q55 47 149.5 85t235.5 38q98 0 183 -23t147.5 -67t97.5 -111.5 t35 -155.5q0 -129 -61.5 -208t-174.5 -107v-4q61 -10 115.5 -38t93.5 -71t61.5 -101.5t22.5 -129.5q0 -102 -40 -177t-110.5 -124t-165.5 -73t-208 -24q-135 0 -236.5 34t-173.5 89z" />
<glyph unicode="&#x418;" horiz-adv-x="1497" d="M182 0v1364h213v-829q0 -78 -3 -131.5t-5 -69.5h4q14 23 48 79t89 136l555 815h232v-1364h-215v889q0 59 3 105t5 63h-4q-14 -27 -45 -78t-74 -115l-592 -864h-211z" />
<glyph unicode="&#x419;" horiz-adv-x="1497" d="M182 0v1364h213v-829q0 -78 -3 -131.5t-5 -69.5h4q14 23 48 79t89 136l555 815h232v-1364h-215v889q0 59 3 105t5 63h-4q-14 -27 -45 -78t-74 -115l-592 -864h-211zM428 1757h184q4 -70 40 -110.5t100 -40.5q63 0 98 41t41 110h182q-6 -80 -35.5 -136t-72.5 -93 t-98.5 -54.5t-114.5 -17.5t-114.5 17.5t-99.5 54.5t-73 93t-37 136z" />
<glyph unicode="&#x41a;" horiz-adv-x="1247" d="M182 0v1364h230v-582h106l424 582h252l-487 -641q41 -35 86 -94.5t104 -151.5q45 -72 80 -125t64.5 -89t58 -54.5t65.5 -18.5h21l-2 -190h-92q-55 0 -97.5 16.5t-82.5 53t-83 96t-98 145.5q-43 68 -75.5 121t-61.5 90t-56.5 56.5t-60.5 19.5h-65v-598h-230z" />
<glyph unicode="&#x41b;" horiz-adv-x="1390" d="M51 162q119 10 171 139t73 371l57 692h856v-1364h-229v1171h-418l-45 -550q-25 -328 -129 -484.5t-309 -156.5z" />
<glyph unicode="&#x41c;" horiz-adv-x="1777" d="M96 0l187 1364h223l303 -881q27 -78 45 -139l31 -102h4l31 102q18 61 47 139l307 881h223l186 -1364h-235l-100 788q-10 74 -15.5 122t-7.5 73h-4q-8 -29 -22.5 -77t-36.5 -115l-273 -791h-225l-277 791q-23 66 -37 114.5t-24 77.5h-4q-4 -61 -19 -199l-96 -784h-211z " />
<glyph unicode="&#x41d;" horiz-adv-x="1507" d="M182 0v1364h232v-555h682v555h231v-1364h-231v618h-682v-618h-232z" />
<glyph unicode="&#x41e;" horiz-adv-x="1570" d="M98 680q0 139 45 267t133.5 226.5t215 157t292.5 58.5t295 -57.5t216 -155t133.5 -224.5t46.5 -266t-45.5 -268t-132.5 -227.5t-214 -157t-292 -58.5q-166 0 -294 58.5t-217.5 156t-135.5 224.5t-46 266zM342 686q0 -104 27.5 -198.5t83 -167t138.5 -114.5t193 -42 q113 0 197 42t139.5 112.5t83 163.5t27.5 198q0 104 -26.5 198.5t-82 166t-138.5 113.5t-193 42q-111 0 -195 -41t-140.5 -111.5t-85 -164t-28.5 -197.5z" />
<glyph unicode="&#x41f;" horiz-adv-x="1456" d="M182 0v1364h1094v-1364h-232v1171h-630v-1171h-232z" />
<glyph unicode="&#x420;" horiz-adv-x="1167" d="M182 0v1364h400q106 0 198 -25.5t160 -77t106.5 -129t38.5 -182.5q0 -213 -142 -324.5t-388 -111.5h-141v-514h-232zM414 696h141q158 0 226.5 62.5t68.5 185.5q0 111 -66.5 174.5t-220.5 63.5h-149v-486z" />
<glyph unicode="&#x421;" horiz-adv-x="1263" d="M98 684q0 139 45 266t132 224.5t216.5 156t294.5 58.5q133 0 226.5 -28t171.5 -79l-109 -170q-59 39 -128.5 61.5t-166.5 22.5q-109 0 -190.5 -41t-137 -109.5t-83 -160.5t-27.5 -193q0 -104 27.5 -198.5t83 -167t138.5 -114.5t195 -42q111 0 188 31.5t132 77.5l100 -162 q-27 -25 -68.5 -50.5t-97 -45t-120 -33t-138.5 -13.5q-168 0 -296 58.5t-214 157t-130 226.5t-44 267z" />
<glyph unicode="&#x422;" horiz-adv-x="1062" d="M35 1171v193h993v-193h-379v-1171h-233v1171h-381z" />
<glyph unicode="&#x423;" horiz-adv-x="1167" d="M82 1364h221l303 -688l301 688h223l-466 -1053q-39 -86 -80 -145.5t-90.5 -98t-110.5 -56t-137 -17.5q-37 0 -65.5 5t-45.5 11l31 174q12 -4 30.5 -6t41.5 -2q82 0 133 49t94 148l29 65z" />
<glyph unicode="&#x424;" horiz-adv-x="1548" d="M63 694q0 113 42 212.5t121 174t188.5 117.5t244.5 47v119h230v-119q135 -4 244.5 -46t188.5 -114.5t121 -171t42 -213.5q0 -117 -42 -216t-120 -173.5t-187.5 -117.5t-246.5 -46v-147h-230v147q-135 2 -244.5 44t-187 116t-121 172t-43.5 215zM295 700 q0 -84 27.5 -152.5t78 -118.5t120 -78.5t155.5 -31.5v754q-86 -2 -156.5 -29.5t-120 -76.5t-77 -118t-27.5 -149zM874 319q86 2 157 31t120 78t76.5 117.5t27.5 148.5q0 82 -27.5 150.5t-76.5 119t-119.5 79t-157.5 30.5v-754z" />
<glyph unicode="&#x425;" horiz-adv-x="1214" d="M45 0l432 702l-411 662h264l288 -471l273 471h237l-397 -659l438 -705h-262l-319 518l-307 -518h-236z" />
<glyph unicode="&#x426;" horiz-adv-x="1490" d="M182 0v1364h230v-1171h616v1171h232v-1171h139l-41 -490h-152l-18 297h-1006z" />
<glyph unicode="&#x427;" horiz-adv-x="1323" d="M117 764v600h229v-555q0 -129 66.5 -191.5t169.5 -62.5q57 0 109 18.5t95 46t75 58.5t50 55v631h230v-1364h-230v561q-23 -29 -60.5 -62.5t-89.5 -62t-115.5 -48t-137.5 -19.5q-182 0 -286.5 106.5t-104.5 288.5z" />
<glyph unicode="&#x428;" horiz-adv-x="2103" d="M182 0v1364h230v-1171h514v1171h229v-1171h514v1171h232v-1364h-1719z" />
<glyph unicode="&#x429;" horiz-adv-x="2131" d="M182 0v1364h230v-1171h514v1171h229v-1171h514v1171h232v-1171h139l-41 -490h-152l-18 297h-1647z" />
<glyph unicode="&#x42a;" horiz-adv-x="1357" d="M35 1171v193h545v-514h200q106 0 198.5 -25.5t160 -77t105.5 -129t38 -182.5q0 -215 -141.5 -325.5t-388.5 -110.5h-404v1171h-313zM580 182h174q156 0 225.5 62.5t69.5 185.5q0 111 -67 174.5t-222 63.5h-180v-486z" />
<glyph unicode="&#x42b;" horiz-adv-x="1765" d="M182 0v1364h232v-514h198q106 0 198.5 -25.5t160 -77t106.5 -129t39 -182.5q0 -213 -142.5 -324.5t-387.5 -111.5h-404zM414 182h172q158 0 227.5 62.5t69.5 185.5q0 111 -67.5 174.5t-221.5 63.5h-180v-486zM1352 0v1364h231v-1364h-231z" />
<glyph unicode="&#x42c;" horiz-adv-x="1191" d="M182 0v1364h232v-514h198q106 0 198.5 -25.5t160 -77t106.5 -129t39 -182.5q0 -213 -142.5 -324.5t-387.5 -111.5h-404zM414 182h172q158 0 227.5 62.5t69.5 185.5q0 111 -67.5 174.5t-221.5 63.5h-180v-486z" />
<glyph unicode="&#x42d;" horiz-adv-x="1263" d="M57 94l107 170q53 -41 131 -68.5t184 -27.5q96 0 173 34t133.5 90t89 133t38.5 163h-600v184h598q-6 86 -37.5 162t-86 134t-132 92t-178.5 34q-98 0 -171 -27.5t-128 -68.5l-98 164q57 45 159.5 86t243.5 41q168 0 295 -56.5t213 -153t130 -224.5t44 -271 q0 -141 -46 -269t-133 -226.5t-216 -156t-295 -57.5q-141 0 -240.5 32t-177.5 87z" />
<glyph unicode="&#x42e;" horiz-adv-x="2215" d="M182 0v1364h232v-555h340q18 119 71.5 224.5t139.5 184t202.5 125t262.5 46.5q166 0 293.5 -57.5t216 -155t134.5 -224.5t46 -266t-45 -268t-132.5 -227.5t-214 -157t-292.5 -58.5q-156 0 -279 52.5t-211 140.5t-139 204.5t-62 245.5h-331v-618h-232zM987 686 q0 -104 27.5 -198.5t83 -167t138.5 -114.5t194 -42q113 0 196.5 42t139 112.5t83 163.5t27.5 198q0 104 -26.5 198.5t-82 166t-138.5 113.5t-193 42q-113 0 -197 -41t-140.5 -111.5t-84 -164t-27.5 -197.5z" />
<glyph unicode="&#x42f;" horiz-adv-x="1243" d="M86 190h20q33 0 62 17.5t57.5 50.5t60 81t72.5 110q39 57 78 106t72 68v4q-72 6 -134.5 31.5t-109.5 70.5t-74.5 108.5t-27.5 145.5q0 182 126 281.5t355 99.5h418v-1364h-232v596h-43q-31 -4 -57.5 -24.5t-54 -56.5t-59 -88t-74.5 -116q-55 -86 -98.5 -145.5t-83.5 -96 t-81.5 -53t-97.5 -16.5h-92zM393 977q0 -100 62.5 -156.5t195.5 -56.5h178v418h-165q-139 0 -205 -51.5t-66 -153.5z" />
<glyph unicode="&#x430;" horiz-adv-x="1001" d="M78 250q0 96 47 162.5t123 107.5t170 58.5t188 17.5h39v72q0 90 -41 130t-137 40q-76 0 -138.5 -27t-115.5 -74l-102 140q66 59 160 99t218 40q186 0 279.5 -82t93.5 -268v-404q0 -88 7.5 -154.5t17.5 -107.5h-215q-4 20 -9.5 55t-7.5 58q-43 -55 -116.5 -96.5 t-169.5 -41.5q-61 0 -114.5 18.5t-92.5 54.5t-61.5 86t-22.5 116zM295 262q0 -33 12 -55.5t30.5 -36.5t42 -20.5t46.5 -6.5q72 0 126 32t93 79v199h-39q-137 0 -224 -43.5t-87 -147.5z" />
<glyph unicode="&#x431;" horiz-adv-x="1105" d="M94 680q0 147 25.5 270t85 218.5t160 161t247.5 95.5l326 70l33 -190l-324 -62q-154 -31 -241 -122t-93 -263q45 57 115 98t174 41q92 0 171 -33.5t137.5 -98t92 -159t33.5 -212.5q0 -119 -37.5 -215.5t-101 -164t-148.5 -103.5t-180 -36q-137 0 -228 57.5t-146.5 155 t-78 224.5t-22.5 268zM322 618q0 -246 68.5 -358.5t182.5 -112.5q106 0 169 90.5t63 251.5q0 154 -58.5 248t-168.5 94q-49 0 -88 -12t-69 -33.5t-53.5 -49t-43.5 -58.5q-2 -10 -2 -31v-29z" />
<glyph unicode="&#x432;" d="M158 0v991h395q74 0 139.5 -12t114.5 -42t77.5 -78t28.5 -118q0 -98 -50 -150t-132 -73v-4q45 -6 86 -24.5t72 -48t49 -71.5t18 -96q0 -76 -30.5 -128t-84 -84.5t-129 -47t-163.5 -14.5h-391zM373 164h170q104 0 150 28.5t46 100.5t-44 107.5t-142 35.5h-180v-272z M373 582h155q92 0 133 32.5t41 98.5q0 119 -170 118h-159v-249z" />
<glyph unicode="&#x433;" horiz-adv-x="821" d="M158 0v991h628v-170h-411v-821h-217z" />
<glyph unicode="&#x434;" horiz-adv-x="1177" d="M37 170h78q88 63 112 319l54 502h692v-821h123l-41 -467h-144l-20 297h-651l-27 -297h-143zM330 170h432v651h-303l-35 -362q-18 -201 -94 -289z" />
<glyph unicode="&#x435;" d="M72 502q0 113 34.5 208t98 162.5t148.5 105.5t188 38q201 0 307 -124t106 -343q0 -20 -1 -42t-3 -44h-647q4 -66 21.5 -124t51.5 -101t85 -68t123 -25q102 0 165.5 30t98.5 48l76 -149q-23 -12 -53.5 -29.5t-73.5 -33t-100.5 -26t-129.5 -10.5q-121 0 -214 39t-155.5 110 t-94 167t-31.5 211zM305 618h434q-2 47 -13 89.5t-34.5 74t-61.5 50t-93 18.5q-100 0 -157 -64t-75 -168z" />
<glyph unicode="&#x436;" horiz-adv-x="1554" d="M37 991h242l317 -409h72v409h219v-409h69l320 409h242l-365 -452q35 -27 71 -72t79 -111q63 -102 102 -146t78 -44h16l-4 -166h-82q-45 0 -80 12.5t-66.5 40t-63.5 71.5t-73 105q-66 104 -107.5 150.5t-86.5 50.5h-49v-430h-219v430h-50q-45 -4 -87 -50t-107 -151 q-41 -61 -74 -105t-64.5 -71.5t-66.5 -40t-80 -12.5h-84l2 166h13q39 0 77.5 44t104.5 146q43 66 79 111t70 72z" />
<glyph unicode="&#x437;" horiz-adv-x="878" d="M53 70l84 143q45 -31 109.5 -49.5t140.5 -18.5q102 0 149.5 38t47.5 110q0 35 -19.5 62.5t-53.5 46t-77 27.5t-90 9h-63v140h61q86 0 145.5 34.5t59.5 100.5q0 61 -43 98t-127 37q-72 0 -129.5 -18.5t-97.5 -47.5l-78 142q53 35 131 62.5t180 27.5q76 0 143.5 -16.5 t119.5 -49.5t83 -85t31 -122q0 -98 -51.5 -150t-133.5 -73v-4q45 -6 86 -24.5t72 -48t49.5 -71.5t18.5 -96q0 -76 -32 -131t-87 -92t-132 -55.5t-165 -18.5q-104 0 -187.5 25t-144.5 68z" />
<glyph unicode="&#x438;" horiz-adv-x="1210" d="M158 0v991h196v-540q0 -59 -3 -108.5t-3 -53.5h2q2 2 32 54t77 120l379 528h215v-991h-199v586q0 51 3 93t3 44h-4q0 -2 -27.5 -47t-70.5 -109l-408 -567h-192z" />
<glyph unicode="&#x439;" horiz-adv-x="1210" d="M158 0v991h196v-540q0 -59 -3 -108.5t-3 -53.5h2q2 2 32 54t77 120l379 528h215v-991h-199v586q0 51 3 93t3 44h-4q0 -2 -27.5 -47t-70.5 -109l-408 -567h-192zM272 1393h185q4 -70 39.5 -111t99.5 -41q63 0 98 41t41 111h183q-6 -80 -36 -136.5t-73 -93.5t-98.5 -54 t-114.5 -17t-114.5 17t-99.5 54t-73 93.5t-37 136.5z" />
<glyph unicode="&#x43a;" horiz-adv-x="1044" d="M158 0v991h219v-409h69l320 409h242l-365 -452q35 -27 71 -72t79 -111q63 -102 102 -146t78 -44h16l-4 -166h-82q-45 0 -80 12.5t-66.5 40t-63 71.5t-72.5 105q-66 104 -108 150.5t-87 50.5h-49v-430h-219z" />
<glyph unicode="&#x43b;" horiz-adv-x="1134" d="M43 147q78 6 120 88t58 254l45 502h711v-991h-217v821h-309l-31 -370q-18 -240 -104.5 -353.5t-241.5 -113.5z" />
<glyph unicode="&#x43c;" horiz-adv-x="1400" d="M80 0l143 991h211l209 -612q10 -29 19.5 -58.5t17.5 -54.5l16 -57h4l17 57q8 25 17 54.5t20 58.5l215 612h213l139 -991h-223l-66 512q-4 29 -6 55.5t-4 46.5q-2 23 -4 43h-4q-4 -20 -13 -43q-6 -20 -14 -45.5t-16 -52.5l-176 -516h-211l-178 516q-10 25 -16.5 49.5 t-12.5 44.5q-8 23 -12 47h-5q-2 -23 -4 -47q-2 -23 -3 -48t-5 -50l-69 -512h-199z" />
<glyph unicode="&#x43d;" horiz-adv-x="1196" d="M158 0v991h219v-389h442v389h219v-991h-219v426h-442v-426h-219z" />
<glyph unicode="&#x43e;" horiz-adv-x="1105" d="M72 494q0 92 26.5 184t83 168t146.5 123t219 47q127 0 219 -46t152.5 -120t89 -166t28.5 -184q0 -90 -27.5 -183.5t-87 -169t-151.5 -124t-219 -48.5q-129 0 -219 47.5t-148.5 121t-85 166t-26.5 184.5zM301 500q0 -74 14.5 -138.5t45 -111.5t78.5 -75t114 -28 q68 0 115 27t77.5 73t45 109.5t14.5 137.5t-16.5 138t-48 111.5t-81 75t-116.5 27.5q-66 0 -112 -26.5t-74.5 -73t-42 -109.5t-13.5 -137z" />
<glyph unicode="&#x43f;" horiz-adv-x="1167" d="M158 0v991h852v-991h-219v817h-414v-817h-219z" />
<glyph unicode="&#x440;" horiz-adv-x="1126" d="M158 -449v1440h215v-104q41 47 108.5 88t171.5 41q186 0 294 -135.5t108 -382.5q0 -117 -33 -213.5t-91.5 -165t-139 -106.5t-177.5 -38q-98 0 -154.5 28t-84.5 50v-502h-217zM375 227q29 -27 76 -52t124 -25q123 0 185.5 95t62.5 251q0 154 -56 247t-175 93 q-43 0 -79 -14.5t-63.5 -33t-47 -39t-27.5 -32.5v-490z" />
<glyph unicode="&#x441;" horiz-adv-x="921" d="M72 496q0 125 37.5 222t104.5 163.5t156 100.5t193 34q121 0 194.5 -32t108.5 -56l-80 -154q-37 25 -88 47.5t-131 22.5q-135 0 -200.5 -96.5t-65.5 -245.5q0 -74 16.5 -138.5t50 -111.5t84 -74.5t119.5 -27.5q90 0 147.5 27.5t80.5 41.5l71 -149q-16 -12 -41.5 -28.5 t-64.5 -31t-90 -25t-119 -10.5q-115 0 -205 40t-151.5 111t-94 165t-32.5 205z" />
<glyph unicode="&#x442;" horiz-adv-x="892" d="M35 819v172h823v-172h-303v-819h-219v819h-301z" />
<glyph unicode="&#x443;" horiz-adv-x="1003" d="M2 -463l31 174q10 -2 28.5 -5t59.5 -3q51 0 89 13.5t64.5 38t46 61.5t35.5 84l43 114l-372 977h235l250 -715h6l234 715h225l-414 -1108q-31 -80 -65.5 -146.5t-83.5 -113.5t-118 -73.5t-165 -26.5q-53 0 -83 5t-46 9z" />
<glyph unicode="&#x444;" horiz-adv-x="1564" d="M72 494q0 115 28.5 211t80.5 165.5t126 108.5t166 39q76 0 125 -23.5t78 -46.5v527h213v-527q27 23 76 46.5t127 23.5q92 0 165.5 -38t126 -106.5t81 -164t28.5 -209.5q0 -115 -28.5 -211t-81 -166t-126 -109t-165.5 -39q-78 0 -127.5 21.5t-75.5 44.5v-490h-213v490 q-29 -23 -77 -44.5t-126 -21.5q-92 0 -166 38t-126 106.5t-80.5 164t-28.5 210.5zM301 500q0 -74 12.5 -137.5t39 -110.5t66.5 -74.5t93 -27.5q61 0 103 23.5t71 51.5v545q-29 29 -71 51.5t-103 22.5q-53 0 -93 -26.5t-66.5 -73t-39 -108.5t-12.5 -136zM879 225 q29 -29 70.5 -52t103.5 -23q53 0 93 26.5t65.5 72.5t38 108.5t12.5 136.5t-12.5 137t-38 111.5t-65.5 75t-93 26.5q-61 0 -103.5 -22.5t-70.5 -51.5v-545z" />
<glyph unicode="&#x445;" horiz-adv-x="1001" d="M39 0l340 516l-324 475h246l205 -307l188 307h226l-310 -465l355 -526h-246l-238 358l-219 -358h-223z" />
<glyph unicode="&#x446;" horiz-adv-x="1216" d="M158 0v991h219v-817h416v817h217v-821h125l-41 -467h-144l-20 297h-772z" />
<glyph unicode="&#x447;" horiz-adv-x="1114" d="M119 578v413h217v-370q0 -82 35 -129.5t123 -47.5q47 0 88 19.5t73.5 46.5t54 52.5t29.5 35.5v393h219v-991h-219v422q-18 -25 -47.5 -53.5t-69.5 -53t-91.5 -41t-112.5 -16.5q-80 0 -137.5 25.5t-93 68.5t-52 101.5t-16.5 124.5z" />
<glyph unicode="&#x448;" horiz-adv-x="1703" d="M158 0v991h219v-817h366v817h218v-817h366v817h219v-991h-1388z" />
<glyph unicode="&#x449;" horiz-adv-x="1753" d="M158 0v991h219v-817h366v817h218v-817h366v817h219v-821h125l-41 -467h-145l-19 297h-1308z" />
<glyph unicode="&#x44a;" horiz-adv-x="1120" d="M35 821v170h463v-348h178q86 0 158.5 -18.5t126 -57.5t83 -98t29.5 -141q0 -166 -112.5 -247t-309.5 -81h-370v821h-246zM498 162h153q205 0 205 162q0 80 -47 118.5t-152 38.5h-159v-319z" />
<glyph unicode="&#x44b;" horiz-adv-x="1519" d="M158 0v991h217v-348h178q86 0 158.5 -18.5t126 -57.5t83 -98t29.5 -141q0 -166 -112.5 -247t-309.5 -81h-370zM375 162h153q205 0 205 162q0 80 -47 118.5t-151 38.5h-160v-319zM1141 0v991h219v-991h-219z" />
<glyph unicode="&#x44c;" horiz-adv-x="997" d="M158 0v991h217v-348h178q86 0 158.5 -18.5t126 -57.5t83 -98t29.5 -141q0 -166 -112.5 -247t-309.5 -81h-370zM375 162h153q205 0 205 162q0 80 -47 118.5t-151 38.5h-160v-319z" />
<glyph unicode="&#x44d;" horiz-adv-x="980" d="M49 76l96 157q41 -33 99.5 -52t130.5 -19q129 0 208 72.5t89 185.5h-473v153h473q-10 113 -88 187t-209 74q-72 0 -127 -19.5t-94 -48.5l-86 156q47 33 124.5 61.5t188.5 28.5q131 0 230.5 -41t166 -112t99 -163t32.5 -196t-34.5 -198.5t-102 -164t-168 -110.5 t-231.5 -41q-203 0 -324 90z" />
<glyph unicode="&#x44e;" horiz-adv-x="1660" d="M158 0v991h219v-389h260q12 78 46 152.5t90 133t137 93.5t190 35q129 0 221 -46t151.5 -120t88 -166t28.5 -184q0 -90 -27.5 -183.5t-87 -169t-150.5 -124t-220 -48.5q-117 0 -202 39t-142.5 103.5t-89 144.5t-39.5 164h-254v-426h-219zM856 500q0 -74 14.5 -138.5 t45 -111.5t77.5 -75t115 -28t115 27t76.5 73t44 109.5t14.5 137.5t-15.5 138t-48 111.5t-81 75t-115.5 27.5q-68 0 -114 -26.5t-74.5 -73t-41 -109.5t-12.5 -137z" />
<glyph unicode="&#x44f;" horiz-adv-x="1052" d="M59 0v166h15q37 0 73.5 33.5t94.5 119.5q29 45 59.5 81t65.5 49v2q-43 4 -86 22.5t-77 49t-54.5 75.5t-20.5 104q0 141 100.5 215t286.5 74h379v-991h-217v406h-60q-45 0 -87 -44.5t-103 -142.5q-41 -63 -72.5 -105t-63.5 -68t-67 -36t-80 -10h-86zM350 692 q0 -135 170 -135h158v270h-148q-94 0 -137 -31.5t-43 -103.5z" />
<glyph unicode="&#x450;" d="M166 1407h292l179 -268h-191zM72 502q0 113 34.5 208t98 162.5t148.5 105.5t188 38q201 0 307 -124t106 -343q0 -20 -1 -42t-3 -44h-647q4 -66 21.5 -124t51.5 -101t85 -68t123 -25q102 0 165.5 30t98.5 48l76 -149q-23 -12 -53.5 -29.5t-73.5 -33t-100.5 -26 t-129.5 -10.5q-121 0 -214 39t-155.5 110t-94 167t-31.5 211zM305 618h434q-2 47 -13 89.5t-34.5 74t-61.5 50t-93 18.5q-100 0 -157 -64t-75 -168z" />
<glyph unicode="&#x451;" d="M72 502q0 113 34.5 208t98 162.5t148.5 105.5t188 38q201 0 307 -124t106 -343q0 -20 -1 -42t-3 -44h-647q4 -66 21.5 -124t51.5 -101t85 -68t123 -25q102 0 165.5 30t98.5 48l76 -149q-23 -12 -53.5 -29.5t-73.5 -33t-100.5 -26t-129.5 -10.5q-121 0 -214 39t-155.5 110 t-94 167t-31.5 211zM193 1237q0 53 37.5 91t95.5 38q57 0 95 -38t38 -91t-38 -92t-95 -39t-95 39t-38 92zM305 618h434q-2 47 -13 89.5t-34.5 74t-61.5 50t-93 18.5q-100 0 -157 -64t-75 -168zM602 1237q0 53 38 91t95 38t95 -38t38 -91t-37.5 -92t-95.5 -39q-57 0 -95 39 t-38 92z" />
<glyph unicode="&#x452;" horiz-adv-x="1114" d="M70 1165v166h88v144h217v-144h321v-166h-321v-272q41 43 104.5 73.5t138.5 30.5q178 0 289 -130t111 -386q0 -137 -26.5 -259t-74 -222t-113 -173t-142.5 -112l-89 138q104 72 163 234.5t59 391.5q0 74 -12.5 136.5t-40 106.5t-71.5 69.5t-108 25.5q-57 0 -108.5 -27.5 t-79.5 -58.5v-731h-217v1165h-88z" />
<glyph unicode="&#x453;" horiz-adv-x="821" d="M158 0v991h628v-170h-411v-821h-217zM371 1108l178 268h295l-283 -268h-190z" />
<glyph unicode="&#x454;" horiz-adv-x="978" d="M72 496q0 104 33.5 197t101 164t168 112t233.5 41q100 0 174 -21.5t133 -60.5l-94 -158q-41 29 -91 46.5t-122 17.5q-131 0 -210 -74t-89 -185h461v-155h-463q12 -113 90 -186.5t209 -73.5q80 0 137.5 24.5t98.5 53.5l86 -156q-43 -35 -125 -66.5t-203 -31.5 q-131 0 -230.5 41t-165 111.5t-99 163t-33.5 196.5z" />
<glyph unicode="&#x455;" horiz-adv-x="849" d="M68 70l79 155q29 -20 93.5 -51t150.5 -31t133 30t47 85q0 29 -16 50.5t-47 40t-75 36.5t-97 43q-55 25 -99 52.5t-77 62.5t-50.5 79t-17.5 103q0 63 24.5 117.5t68.5 92.5t107.5 59.5t143.5 21.5q63 0 113.5 -10.5t88.5 -23.5t64.5 -28.5t40.5 -23.5l-86 -152 q-29 18 -83 43t-132 25q-76 0 -112.5 -29t-36.5 -80q0 -31 15.5 -51t42 -37.5t62.5 -32.5l76 -30q59 -25 112.5 -52.5t92.5 -62.5t61.5 -81t22.5 -109q0 -147 -101.5 -227.5t-275.5 -80.5q-123 0 -204.5 32t-128.5 65z" />
<glyph unicode="&#x456;" horiz-adv-x="546" d="M131 1284q0 57 41 98t100 41q61 0 102.5 -41t41.5 -98t-41 -98t-103 -41q-59 0 -100 41t-41 98zM164 0v991h219v-991h-219z" />
<glyph unicode="&#x457;" horiz-adv-x="546" d="M-63 1237q0 53 37.5 91t95.5 38q57 0 95 -38t38 -91t-38 -92t-95 -39t-95 39t-38 92zM164 0v991h219v-991h-219zM346 1237q0 53 38 91t95 38t95 -38t38 -91t-37.5 -92t-95.5 -39q-57 0 -95 39t-38 92z" />
<glyph unicode="&#x458;" horiz-adv-x="530" d="M-86 -455l37 172q10 -4 26.5 -7t47.5 -3q78 0 105.5 54.5t27.5 168.5v1061h219v-1089q0 -86 -17.5 -156t-55.5 -119t-98.5 -75.5t-144.5 -26.5q-66 0 -100.5 8t-46.5 12zM123 1284q0 57 41 98t100 41q61 0 101.5 -41t40.5 -98t-40 -98t-102 -41q-59 0 -100 41t-41 98z " />
<glyph unicode="&#x459;" horiz-adv-x="1607" d="M43 147q78 6 120 88t58 254l45 502h719v-348h178q86 0 159 -18.5t126 -57.5t83 -98t30 -141q0 -166 -113 -247t-309 -81h-371v821h-322l-30 -370q-18 -240 -102.5 -353.5t-239.5 -113.5zM985 162h154q205 0 204 162q0 80 -47 118.5t-151 38.5h-160v-319z" />
<glyph unicode="&#x45a;" horiz-adv-x="1685" d="M158 0v991h219v-358h467v358h219v-358h178q86 0 159 -18.5t126 -56.5t82.5 -96.5t29.5 -137.5q0 -166 -112.5 -245t-308.5 -79h-373v463h-467v-463h-219zM1063 162h154q205 0 204 157q0 78 -47 115t-151 37h-160v-309z" />
<glyph unicode="&#x45b;" horiz-adv-x="1118" d="M61 1165v166h89v144h219v-144h321v-166h-321v-313q16 20 43.5 47t66.5 50.5t90.5 40t112.5 16.5q80 0 136 -25t92 -68t51.5 -100t15.5 -123v-690h-217v645q0 84 -33 129t-119 45q-47 0 -87 -19.5t-71.5 -45t-52 -50t-28.5 -34.5v-670h-219v1165h-89z" />
<glyph unicode="&#x45c;" horiz-adv-x="1044" d="M158 0v991h219v-409h69l320 409h242l-365 -452q35 -27 71 -72t79 -111q63 -102 102 -146t78 -44h16l-4 -166h-82q-45 0 -80 12.5t-66.5 40t-63 71.5t-72.5 105q-66 104 -108 150.5t-87 50.5h-49v-430h-219zM391 1108l178 268h295l-282 -268h-191z" />
<glyph unicode="&#x45d;" horiz-adv-x="1210" d="M230 1407h292l179 -268h-191zM158 0v991h196v-540q0 -59 -3 -108.5t-3 -53.5h2q2 2 32 54t77 120l379 528h215v-991h-199v586q0 51 3 93t3 44h-4q0 -2 -27.5 -47t-70.5 -109l-408 -567h-192z" />
<glyph unicode="&#x45e;" horiz-adv-x="1003" d="M2 -463l31 174q10 -2 28.5 -5t59.5 -3q51 0 89 13.5t64.5 38t46 61.5t35.5 84l43 114l-372 977h235l250 -715h6l234 715h225l-414 -1108q-31 -80 -65.5 -146.5t-83.5 -113.5t-118 -73.5t-165 -26.5q-53 0 -83 5t-46 9zM190 1393h185q4 -70 40 -111t99 -41t98 41t41 111 h183q-6 -80 -36 -136.5t-73 -93.5t-98.5 -54t-114.5 -17t-114.5 17t-99.5 54t-73 93.5t-37 136.5z" />
<glyph unicode="&#x45f;" horiz-adv-x="1177" d="M158 0v991h219v-817h424v817h219v-991h-344l-17 -297h-143l-16 297h-342z" />
<glyph unicode="&#x490;" horiz-adv-x="980" d="M182 0v1364h570l24 299h152l26 -487h-540v-1176h-232z" />
<glyph unicode="&#x491;" horiz-adv-x="821" d="M158 0v991h444l21 297h145l35 -467h-428v-821h-217z" />
<glyph unicode="&#x4ae;" horiz-adv-x="1185" d="M29 1364h258l321 -633h2l322 633h225l-442 -848v-516h-232v516z" />
<glyph unicode="&#x4c0;" horiz-adv-x="624" d="M195 0v1364h231v-1364h-231z" />
<glyph unicode="&#x2000;" horiz-adv-x="888" />
<glyph unicode="&#x2001;" horiz-adv-x="1779" />
<glyph unicode="&#x2002;" horiz-adv-x="888" />
<glyph unicode="&#x2003;" horiz-adv-x="1779" />
<glyph unicode="&#x2004;" horiz-adv-x="591" />
<glyph unicode="&#x2005;" horiz-adv-x="444" />
<glyph unicode="&#x2006;" horiz-adv-x="294" />
<glyph unicode="&#x2007;" horiz-adv-x="294" />
<glyph unicode="&#x2008;" horiz-adv-x="221" />
<glyph unicode="&#x2009;" horiz-adv-x="354" />
<glyph unicode="&#x200a;" horiz-adv-x="98" />
<glyph unicode="&#x2010;" horiz-adv-x="655" d="M106 492v180h443v-180h-443z" />
<glyph unicode="&#x2011;" horiz-adv-x="655" d="M106 492v180h443v-180h-443z" />
<glyph unicode="&#x2012;" horiz-adv-x="655" d="M106 492v180h443v-180h-443z" />
<glyph unicode="&#x2013;" horiz-adv-x="1103" d="M104 469v172h895v-172h-895z" />
<glyph unicode="&#x2014;" horiz-adv-x="1746" d="M104 469v172h1538v-172h-1538z" />
<glyph unicode="&#x2018;" horiz-adv-x="440" d="M74 1018q0 51 14 102t34.5 97.5t45.5 84t43 62.5h143q-23 -33 -49 -86t-26 -107q0 -35 14 -56t32.5 -40.5t33 -44t14.5 -63.5q0 -55 -39 -90t-98 -35q-66 0 -114 46t-48 130z" />
<glyph unicode="&#x2019;" horiz-adv-x="440" d="M68 1264q0 53 38.5 89t98.5 36q66 0 115 -46.5t49 -130.5q0 -51 -14.5 -103t-36 -98t-46 -83t-43.5 -62h-143q25 33 50.5 85.5t25.5 105.5q0 35 -14.5 56.5t-33 42t-32.5 45t-14 63.5z" />
<glyph unicode="&#x201a;" horiz-adv-x="473" d="M84 147q0 53 39 89t98 36q66 0 115 -46t49 -130q0 -51 -14.5 -103t-36 -98.5t-46 -83t-42.5 -61.5h-144q23 33 49.5 85t26.5 106q0 35 -14 56t-32.5 41.5t-33 45t-14.5 63.5z" />
<glyph unicode="&#x201c;" horiz-adv-x="825" d="M59 1018q0 51 14.5 102t35 97.5t45 84t43.5 62.5h143q-23 -33 -49.5 -86t-26.5 -107q0 -35 14.5 -56t33 -40.5t32.5 -44t14 -63.5q0 -55 -38.5 -90t-98.5 -35q-66 0 -114 46t-48 130zM459 1018q0 51 14 102t34.5 97.5t45.5 84t43 62.5h143q-23 -33 -49 -86t-26 -107 q0 -35 14 -56t32.5 -40.5t33 -44t14.5 -63.5q0 -55 -39 -90t-98 -35q-66 0 -114 46t-48 130z" />
<glyph unicode="&#x201d;" horiz-adv-x="825" d="M68 1264q0 53 38.5 89t98.5 36q66 0 115 -46.5t49 -130.5q0 -51 -14.5 -103t-36 -98t-46 -83t-43.5 -62h-143q25 33 50.5 85.5t25.5 105.5q0 35 -14.5 56.5t-33 42t-32.5 45t-14 63.5zM467 1264q0 53 39 89t98 36q66 0 115 -46.5t49 -130.5q0 -51 -14.5 -103t-36 -98 t-46 -83t-42.5 -62h-144q23 33 49.5 85.5t26.5 105.5q0 35 -14.5 56.5t-32.5 42t-32.5 45t-14.5 63.5z" />
<glyph unicode="&#x201e;" horiz-adv-x="839" d="M68 147q0 53 38.5 89t98.5 36q66 0 115 -46t49 -130q0 -51 -14.5 -103t-36 -98.5t-46 -83t-43.5 -61.5h-143q25 33 50.5 85t25.5 106q0 35 -14.5 56t-33 41.5t-32.5 45t-14 63.5zM467 147q0 53 39 89t98 36q66 0 115 -46t49 -130q0 -51 -14.5 -103t-36 -98.5t-46 -83 t-42.5 -61.5h-144q23 33 49.5 85t26.5 106q0 35 -14.5 56t-32.5 41.5t-32.5 45t-14.5 63.5z" />
<glyph unicode="&#x2026;" horiz-adv-x="1429" d="M106 133q0 63 45.5 106.5t110.5 43.5q63 0 108.5 -43t45.5 -107q0 -66 -45 -109.5t-109 -43.5q-66 0 -111 43.5t-45 109.5zM561 133q0 63 44 106.5t108 43.5q66 0 110.5 -43t44.5 -107q0 -66 -45 -109.5t-110 -43.5q-63 0 -107.5 43.5t-44.5 109.5zM1012 133 q0 63 45 106.5t110 43.5q66 0 110 -43t44 -107q0 -66 -44 -109.5t-110 -43.5t-110.5 43.5t-44.5 109.5z" />
<glyph unicode="&#x202f;" horiz-adv-x="354" />
<glyph unicode="&#x2039;" horiz-adv-x="634" d="M78 502l258 393h227l-254 -393l254 -391h-227z" />
<glyph unicode="&#x203a;" horiz-adv-x="634" d="M72 111l256 391l-256 393h227l260 -393l-260 -391h-227z" />
<glyph unicode="&#x205f;" horiz-adv-x="444" />
<glyph unicode="&#x20ac;" horiz-adv-x="1198" d="M74 442v160h131q-2 20 -2 41v96h-129v160h149q25 115 75 206t124 153.5t169 96.5t208 34q135 0 211.5 -26t130.5 -60l-94 -173q-35 18 -91.5 43t-154.5 25q-127 0 -215 -77t-125 -222h346v-160h-369v-94q0 -23 2 -43h367v-160h-336q41 -139 128 -206.5t206 -67.5 q92 0 154.5 26.5t101.5 55.5l94 -164q-25 -16 -56.5 -35.5t-74.5 -36t-98.5 -28t-128.5 -11.5q-98 0 -189.5 29t-165 86t-129 145.5t-84.5 206.5h-155z" />
<glyph unicode="&#x2122;" horiz-adv-x="1490" d="M78 1245v119h491v-119h-174v-483h-143v483h-174zM627 762l73 602h150l121 -322q16 -43 26.5 -78.5t10.5 -39.5h4q2 4 11 38.5t28 81.5l120 320h152l74 -602h-146l-28 297q-4 41 -6.5 78t-2.5 39h-4q0 -2 -8 -41t-28 -93l-109 -280h-125l-98 272l-17 49q-8 25 -14 45.5 t-9 33.5l-3 14h-4q0 -2 -2 -35t-7 -84l-28 -295h-131z" />
<glyph unicode="&#xe000;" horiz-adv-x="990" d="M0 990h990v-990h-990v990z" />
</font>
</defs>
</svg>
